HIERARCHY
ROOT pelvis
{
  OFFSET 0 100 0
  CHANNELS 6 Xposition Yposition Zposition Zrotation Xrotation Yrotation
  JOINT pelvis_right_femur
  {
    OFFSET -10.78128 -3.44521 -0.5502486
    CHANNELS 3 Zrotation Xrotation Yrotation
    JOINT right_femur_tibia
    {
      OFFSET -0.8047443 -44.0398 -0.1307829
      CHANNELS 3 Zrotation Xrotation Yrotation
      JOINT right_tibia_foot
      {
        OFFSET 3.006224 -47.83518 -5
        CHANNELS 3 Zrotation Xrotation Yrotation
        End Site
        {
          OFFSET 0 -5 15
        }
      }
    }
  }
  JOINT pelvis_left_femur
  {
    OFFSET 10.78128 -3.44521 -0.5502486
    CHANNELS 3 Zrotation Xrotation Yrotation
    JOINT left_femur_tibia
    {
      OFFSET 0.8047443 -44.0398 -0.1307829
      CHANNELS 3 Zrotation Xrotation Yrotation
      JOINT left_tibia_foot
      {
        OFFSET -4.370144 -48.10324 -4.275266
        CHANNELS 3 Zrotation Xrotation Yrotation
        End Site
        {
          OFFSET 0 -5 15
        }
      }
    }
  }
  JOINT pelvis_spine1
  {
    OFFSET 0 6.468898 -3.129235
    CHANNELS 3 Zrotation Xrotation Yrotation
    JOINT spine1
    {
      OFFSET 0 23.15396 4.99043
      CHANNELS 3 Zrotation Xrotation Yrotation
      JOINT spine2
      {
        OFFSET 0 20.79997 -5.064912
        CHANNELS 3 Zrotation Xrotation Yrotation
        JOINT neck
        {
          OFFSET 0 14.38658 9.616178
          CHANNELS 3 Zrotation Xrotation Yrotation
          End Site
          {
            OFFSET 0 20 0
          }
        }
      }
      JOINT right_manubrium
      {
        OFFSET -5.722621 16.35077 3.967754
        CHANNELS 3 Zrotation Xrotation Yrotation
        JOINT right_clavicle
        {
          OFFSET -13.16364 1.694482 -4.693211
          CHANNELS 3 Zrotation Xrotation Yrotation
          JOINT right_humerus
          {
            OFFSET -28.5034 -0.3100689 -2.792744
            CHANNELS 3 Zrotation Xrotation Yrotation
            JOINT right_radius
            {
              OFFSET -25.15693 0.02248979 -1.271978
              CHANNELS 3 Zrotation Xrotation Yrotation
              End Site
              {
                OFFSET -15 0 0
              }
            }
          }
        }
      }
      JOINT left_manubrium
      {
        OFFSET 5.722621 16.35077 3.967754
        CHANNELS 3 Zrotation Xrotation Yrotation
        JOINT left_clavicle
        {
          OFFSET 13.16364 1.694482 -4.693211
          CHANNELS 3 Zrotation Xrotation Yrotation
          JOINT left_humerus
          {
            OFFSET 29.39168 -1.063119 -2.237045
            CHANNELS 3 Zrotation Xrotation Yrotation
            JOINT left_radius
            {
              OFFSET 24.59957 -0.9528479 0.9047498
              CHANNELS 3 Zrotation Xrotation Yrotation
              End Site
              {
                OFFSET 15 -0 -0
              }
            }
          }
        }
      }
    }
  }
}
MOTION
Frames: 15
Frame Time: 0.0416666666667
0 103.5113 0 0.5483895 -1.436255 0.1436363 3.614957 -15.0032 8.010624 -0 37.68937 -0 -5.888595 -12.76583 -1.970684 -7.019602 7.768935 -21.40564 -0 4.655606 -0 10.31224 -14.98864 26.85145 -2.921825 -3.616707 4.992694 2.153943 11.08615 -7.509689 1.232002 21.86424 6.898275 2.786721 -25.2256 9.836838 4.767052 -21.4974 12.10352 86.85739 33.15603 -18.39087 -0 0 16.98183 -9.158352 8.348551 5.100107 6.363499 -20.33246 -1.693649 -93.28537 21.85628 22.33126 0 0 -13.82151 14.25131 15.88947 -2.897417
0.390867 103.618 2.055737 0.08469029 -0.8815317 0.3094827 4.375334 -18.32876 7.748177 -0 36.83423 -0 -6.209873 -11.82282 -1.986558 -6.608243 8.835805 -21.15379 -0 5.259684 -0 9.709179 -15.98179 26.10998 -2.718389 -3.11478 4.477978 2.369351 10.68237 -7.632582 1.219615 21.78699 7.13935 2.997707 -25.49677 9.925953 4.863101 -20.81721 12.03822 86.80378 33.30108 -18.73263 -0 0 16.14042 -8.96614 8.309339 4.997736 6.482484 -20.4295 -1.727557 -92.9813 22.46855 21.4949 0 0 -14.66207 13.8051 15.92893 -2.234097
0.6451056 103.7925 4.056871 -0.4032381 1.369999 0.5508858 6.099344 -25.12562 9.518384 -0 34.2382 -0 -5.846394 -14.73663 -3.064173 -6.243674 11.67414 -22.10918 -0 5.699233 -0 9.30261 -18.1146 25.56962 -3.047137 -2.472111 3.919148 3.139938 9.08719 -8.148991 1.37218 21.33574 7.206846 3.092096 -25.68698 10.13624 6.368995 -19.07866 11.56451 85.53873 37.0804 -19.32098 -0 0 15.54942 -5.819851 8.367982 3.720037 6.299243 -19.63985 -0.8965461 -92.46129 25.60563 20.20352 0 0 -17.10096 10.99176 15.61946 1.379647
0.8614581 103.8678 6.341769 -0.831463 2.248683 0.8425899 6.980868 -28.50271 9.454537 -0 31.38482 -0 -5.891165 -13.83179 -3.082432 -5.898077 12.7435 -21.65725 -0 6.714143 -0 8.436684 -19.21 24.48587 -2.942854 -1.986195 3.554009 3.480029 8.583894 -8.295957 1.41459 21.06379 7.328372 3.247704 -26.03505 10.18231 6.548788 -18.38988 11.41888 85.40189 37.56117 -19.66882 -0 0 14.80486 -5.516431 8.482122 3.752137 6.372963 -19.63271 -0.8051637 -92.06718 26.20269 19.44107 0 0 -18.22685 10.07856 15.22155 2.520665
1.136905 103.7502 9.315002 -1.13874 1.708256 1.136701 6.709254 -29.00933 6.999444 -0 27.98078 -0 -6.552109 -8.653886 -1.749216 -5.680075 12.19905 -19.34586 -0 8.546641 -0 8.090688 -18.97499 23.08978 -2.33818 -1.839778 3.486714 3.318098 9.545142 -8.176602 1.288631 20.94825 7.549657 3.421292 -26.5761 10.1147 5.127051 -18.86576 11.72053 86.9266 34.43223 -20.22562 -0 0 13.36459 -8.359364 8.663401 5.044487 6.898003 -21.04716 -1.525212 -91.01974 22.88385 18.39985 0 0 -19.08543 12.96197 14.60811 -0.9478975
1.464709 103.4497 13.15263 -1.14843 0.7776328 1.428334 6.031378 -28.74106 3.85696 -0 23.19578 -0 -7.478265 -3.20494 -0.219205 -5.654493 11.73422 -16.37488 -0 11.39849 -0 8.327647 -18.36566 21.78785 -1.760402 -2.036113 3.651699 2.975688 10.87084 -8.061966 1.169723 20.96755 7.625896 3.422385 -26.76307 9.959464 3.135069 -19.49292 11.97906 89.25954 30.53045 -21.2354 -0 0 11.3101 -11.7817 8.790872 6.334895 7.522178 -23.12561 -2.409468 -89.34395 18.43273 16.61382 0 0 -21.23392 17.02922 13.60417 -5.879919
1.795487 102.9808 17.94908 -0.8111178 -0.196508 1.744498 5.213255 -28.37722 0.5243671 -0 16.71881 -0 -8.464817 1.485213 0.9876708 -5.843406 12.13308 -13.21369 -0 15.10726 -0 8.445457 -18.0643 20.35556 -1.390888 -2.518689 3.893941 2.586397 12.04484 -8.054733 1.065018 21.12357 7.540689 3.275643 -26.40974 9.617641 0.9757248 -19.86314 12.03381 92.01411 26.76056 -22.82102 -0 0 8.672377 -15.06658 8.863804 7.395275 7.985131 -25.48468 -3.397805 -87.31722 14.63136 14.25892 0 0 -25.30905 19.9244 12.56945 -9.511341
2.075248 102.3639 23.67905 -0.2214609 -1.530372 2.101677 4.362964 -27.27572 -2.855219 -0 10.15154 -0 -9.570146 5.404661 1.669343 -6.122695 13.2682 -10.10294 -0 19.07341 -0 7.811091 -18.02799 18.68403 -1.093092 -3.179374 4.005896 2.089594 12.97967 -8.081804 0.9549351 21.543 7.310544 3.020319 -25.42769 9.024688 -1.334209 -20.02323 11.9291 94.96671 22.76892 -24.59712 -0 0 5.779722 -18.35135 8.829805 8.340637 8.10173 -27.81495 -4.680609 -85.34644 12.22053 11.81637 0 0 -30.35844 20.7241 12.3212 -10.78162
2.253182 101.7646 30.10415 0.2310426 -3.123489 2.460464 4.052277 -25.50305 -5.284857 -0 5.969228 -0 -10.68377 7.654983 1.507448 -6.149964 14.7144 -7.738847 -0 23.06984 -0 6.15435 -17.79228 16.95658 -0.6596055 -3.756222 3.790826 1.600903 13.46529 -8.126985 0.9030365 22.17484 6.93402 2.706584 -24.04073 8.314268 -3.31635 -19.92251 11.73544 97.39571 19.1184 -25.92737 -0 0 3.469515 -20.95356 8.767437 8.943088 7.741742 -29.37812 -6.057925 -84.00142 11.84602 9.985978 0 0 -34.19068 19.27523 13.25855 -9.466176
2.30252 101.4988 36.84357 0.1349759 -4.444255 2.668296 4.71103 -23.61337 -5.738383 -0 5.523879 -0 -11.58328 7.729861 0.5110427 -5.639883 15.57202 -6.712825 -0 28.16306 -0 3.999161 -16.58152 15.5937 0.001513393 -4.033299 3.362731 1.364031 13.52341 -8.247829 0.9866332 22.70323 6.463357 2.433322 -22.89807 7.745034 -4.32939 -19.60454 11.58525 98.62397 17.00749 -26.51116 -0 0 2.516262 -22.05996 8.903833 9.009505 6.974424 -29.62031 -7.034603 -83.72884 13.13117 9.532586 0 0 -34.89404 16.55303 14.6862 -6.575187
2.22056 101.7881 43.59239 -0.3729845 -5.440442 2.577575 5.959181 -21.40032 -4.589768 -0 7.331669 -0 -12.27321 6.576012 -0.8406775 -4.72339 14.92888 -6.612496 -0 35.67446 -0 2.180043 -14.10391 14.83002 0.7560524 -4.042256 3.114014 1.368025 13.5928 -8.401421 1.223305 22.9621 5.912531 2.232487 -22.28322 7.367616 -4.540787 -19.36279 11.57578 98.91039 16.3701 -26.53878 -0 0 2.792408 -22.1007 9.309599 8.801849 5.966292 -28.9423 -7.574144 -84.33305 14.70786 10.52537 0 0 -32.96673 13.87328 15.73053 -3.543696
2.022529 102.6273 50.19242 -0.8412721 -6.391119 2.162872 7.087202 -18.45834 -2.929768 -0 9.123638 -0 -12.83249 5.216184 -2.173386 -3.73797 12.59013 -6.651304 -0 44.65951 -0 1.0971 -10.97701 14.52143 1.370153 -3.890231 3.273372 1.393432 13.95636 -8.460458 1.565163 23.00924 5.252449 2.047454 -21.9134 7.037745 -4.536276 -19.45368 11.70006 98.86815 16.33641 -26.19699 -0 0 3.779583 -21.96278 9.897071 8.717886 4.841324 -28.04442 -8.01459 -85.20392 15.73022 12.41313 0 0 -30.30592 11.62752 16.22221 -0.7905774
1.733659 103.8658 56.55423 -1.066238 -7.38521 1.480837 7.740247 -14.79139 -1.440533 -0 10.06872 -0 -13.27107 3.768017 -3.294751 -2.819803 8.856023 -6.504963 -0 52.84542 -0 0.6221688 -7.970799 14.38412 1.730724 -3.597672 3.779763 1.303056 14.51826 -8.330379 1.920113 22.93567 4.531363 1.84108 -21.51813 6.671273 -4.553575 -19.91258 11.90801 98.6493 16.41037 -25.43717 -0 0 5.251237 -21.95295 10.61046 8.894927 3.755394 -27.20538 -8.48158 -86.04444 16.23685 14.73678 0 0 -27.85912 9.745809 16.37425 1.712339
1.386377 105.2896 62.61817 -1.078502 -8.362448 0.6299904 7.922465 -10.47712 -0.4298073 -0 10.22658 -0 -13.53805 1.96579 -4.02654 -1.93607 4.047061 -6.179386 -0 58.488 -0 0.3657663 -5.559671 14.25179 1.844879 -3.16078 4.474396 1.084397 15.04444 -7.967684 2.193524 22.83397 3.859678 1.630238 -21.04102 6.27804 -4.560937 -20.66155 12.14938 98.0799 16.40151 -24.13543 -0 0 7.210534 -22.04544 11.42034 9.284892 2.913066 -26.40487 -8.856758 -86.97602 16.5768 17.28351 0 0 -25.48191 8.189328 16.41616 3.837072
1.024658 106.665 68.36873 -0.9645758 -9.229215 -0.2710728 7.784889 -5.603114 0.01659799 -0 9.836232 -0 -13.56165 -0.2718369 -4.301452 -1.009649 -1.533535 -5.694438 -0 60.50711 -0 0.09320847 -3.941101 14.15052 1.76026 -2.627056 5.214933 0.7769247 15.36741 -7.391175 2.333428 22.75201 3.306029 1.423132 -20.5286 5.883069 -4.514537 -21.6565 12.37415 97.03326 16.25987 -22.21635 -0 0 9.690244 -22.25012 12.28283 9.891547 2.424377 -25.57471 -9.011296 -88.14385 16.94394 19.96585 0 0 -22.91831 6.860551 16.4389 5.55225
